REM DIRINDEX 1\2,1\3,1\4,1\5
REM DIRNAME folder01,folder02,folder03,folder04,folder05
TITLE ""
FILE "P1Q_t_0943-0952.mp3" MP3
  TRACK 01 AUDIO
    TITLE "3:cjc005_3734"
    INDEX 01 00:00:00
  TRACK 02 AUDIO
    TITLE "0:"
    INDEX 01 00:01:01
  TRACK 03 AUDIO
    TITLE "4:cjc005_3735"
    INDEX 01 00:01:30
  TRACK 04 AUDIO
    TITLE "0:"
    INDEX 01 00:02:67
  TRACK 05 AUDIO
    TITLE "5:cjc005_3736"
    INDEX 01 00:03:17
  TRACK 06 AUDIO
    TITLE "0:"
    INDEX 01 00:06:67
  TRACK 07 AUDIO
    TITLE "3:cjc005_3737"
    INDEX 01 00:07:45
  TRACK 08 AUDIO
    TITLE "0:"
    INDEX 01 00:09:00
  TRACK 09 AUDIO
    TITLE "4:cjc005_3738"
    INDEX 01 00:09:26
  TRACK 10 AUDIO
    TITLE "0:"
    INDEX 01 00:10:39
  TRACK 11 AUDIO
    TITLE "5:cjc005_3739"
    INDEX 01 00:10:68
  TRACK 12 AUDIO
    TITLE "0:"
    INDEX 01 00:14:39
  TRACK 13 AUDIO
    TITLE "3:cjc005_3740"
    INDEX 01 00:15:07
  TRACK 14 AUDIO
    TITLE "0:"
    INDEX 01 00:16:12
  TRACK 15 AUDIO
    TITLE "4:cjc005_3741"
    INDEX 01 00:16:40
  TRACK 16 AUDIO
    TITLE "0:"
    INDEX 01 00:17:53
  TRACK 17 AUDIO
    TITLE "5:cjc005_3742"
    INDEX 01 00:17:74
  TRACK 18 AUDIO
    TITLE "0:"
    INDEX 01 00:22:03
  TRACK 19 AUDIO
    TITLE "3:cjc005_3743"
    INDEX 01 00:22:56
  TRACK 20 AUDIO
    TITLE "0:"
    INDEX 01 00:24:04
  TRACK 21 AUDIO
    TITLE "4:cjc005_3744"
    INDEX 01 00:24:27
  TRACK 22 AUDIO
    TITLE "0:"
    INDEX 01 00:25:50
  TRACK 23 AUDIO
    TITLE "5:cjc005_3745"
    INDEX 01 00:25:72
  TRACK 24 AUDIO
    TITLE "0:"
    INDEX 01 00:29:68
  TRACK 25 AUDIO
    TITLE "3:cjc005_3746"
    INDEX 01 00:30:40
  TRACK 26 AUDIO
    TITLE "0:"
    INDEX 01 00:31:51
  TRACK 27 AUDIO
    TITLE "4:cjc005_3747"
    INDEX 01 00:32:00
  TRACK 28 AUDIO
    TITLE "0:"
    INDEX 01 00:33:22
  TRACK 29 AUDIO
    TITLE "5:cjc005_3748"
    INDEX 01 00:33:42
  TRACK 30 AUDIO
    TITLE "0:"
    INDEX 01 00:37:10
  TRACK 31 AUDIO
    TITLE "3:cjc005_3749"
    INDEX 01 00:38:02
  TRACK 32 AUDIO
    TITLE "0:"
    INDEX 01 00:39:17
  TRACK 33 AUDIO
    TITLE "4:cjc005_3750"
    INDEX 01 00:39:51
  TRACK 34 AUDIO
    TITLE "0:"
    INDEX 01 00:41:10
  TRACK 35 AUDIO
    TITLE "5:cjc005_3751"
    INDEX 01 00:41:32
  TRACK 36 AUDIO
    TITLE "0:"
    INDEX 01 00:45:61
  TRACK 37 AUDIO
    TITLE "3:cjc005_3752"
    INDEX 01 00:46:37
  TRACK 38 AUDIO
    TITLE "0:"
    INDEX 01 00:47:44
  TRACK 39 AUDIO
    TITLE "4:cjc005_3753"
    INDEX 01 00:47:74
  TRACK 40 AUDIO
    TITLE "0:"
    INDEX 01 00:49:10
  TRACK 41 AUDIO
    TITLE "5:cjc005_3754"
    INDEX 01 00:49:33
  TRACK 42 AUDIO
    TITLE "0:"
    INDEX 01 00:53:11
  TRACK 43 AUDIO
    TITLE "3:cjc005_3755"
    INDEX 01 00:53:72
  TRACK 44 AUDIO
    TITLE "0:"
    INDEX 01 00:55:20
  TRACK 45 AUDIO
    TITLE "4:cjc005_3756"
    INDEX 01 00:55:50
  TRACK 46 AUDIO
    TITLE "0:"
    INDEX 01 00:56:59
  TRACK 47 AUDIO
    TITLE "5:cjc005_3757"
    INDEX 01 00:57:09
  TRACK 48 AUDIO
    TITLE "0:"
    INDEX 01 01:01:23
  TRACK 49 AUDIO
    TITLE "3:cjc005_3758"
    INDEX 01 01:01:74
  TRACK 50 AUDIO
    TITLE "0:"
    INDEX 01 01:03:18
  TRACK 51 AUDIO
    TITLE "4:cjc005_3759"
    INDEX 01 01:03:41
  TRACK 52 AUDIO
    TITLE "0:"
    INDEX 01 01:04:64
  TRACK 53 AUDIO
    TITLE "5:cjc005_3760"
    INDEX 01 01:05:11
  TRACK 54 AUDIO
    TITLE "0:"
    INDEX 01 01:09:48
  TRACK 55 AUDIO
    TITLE "3:cjc005_3761"
    INDEX 01 01:10:26
  TRACK 56 AUDIO
    TITLE "0:"
    INDEX 01 01:11:39
  TRACK 57 AUDIO
    TITLE "4:cjc005_3762"
    INDEX 01 01:11:66
  TRACK 58 AUDIO
    TITLE "0:"
    INDEX 01 01:13:34
  TRACK 59 AUDIO
    TITLE "5:cjc005_3763"
    INDEX 01 01:13:57
  TRACK 60 AUDIO
    TITLE "0:"
    INDEX 01 01:17:45
